<svg xmlns="http://www.w3.org/2000/svg" xmlns:xlink="http://www.w3.org/1999/xlink" width="40" zoomAndPan="magnify" viewBox="0 0 30 30.000001" height="40" preserveAspectRatio="xMidYMid meet" version="1.0"><defs><clipPath id="f5806f7286"><path d="M 9.5625 9 L 20.449219 9 L 20.449219 20.324219 L 9.5625 20.324219 Z M 9.5625 9 " clip-rule="nonzero"/></clipPath></defs><g clip-path="url(#f5806f7286)"><path fill="#000000" d="M 16.742188 16.507812 L 17.964844 14.839844 C 18.230469 14.476562 18.421875 14.074219 18.542969 13.640625 C 18.660156 13.203125 18.695312 12.761719 18.648438 12.308594 C 18.601562 11.859375 18.476562 11.433594 18.269531 11.03125 C 18.066406 10.628906 17.792969 10.277344 17.457031 9.976562 C 17.121094 9.671875 16.742188 9.441406 16.320312 9.277344 C 15.898438 9.117188 15.460938 9.035156 15.007812 9.035156 C 14.554688 9.035156 14.117188 9.117188 13.695312 9.277344 C 13.273438 9.441406 12.890625 9.671875 12.554688 9.976562 C 12.21875 10.277344 11.949219 10.628906 11.746094 11.03125 C 11.539062 11.433594 11.414062 11.859375 11.367188 12.308594 C 11.320312 12.761719 11.355469 13.203125 11.472656 13.640625 C 11.589844 14.074219 11.785156 14.476562 12.050781 14.839844 L 13.269531 16.507812 C 11.242188 16.734375 9.5625 17.359375 9.5625 18.363281 C 9.5625 19.640625 12.300781 20.308594 15.007812 20.308594 C 17.710938 20.308594 20.449219 19.640625 20.449219 18.363281 C 20.449219 17.359375 18.769531 16.734375 16.742188 16.507812 Z M 12.546875 14.476562 C 12.328125 14.175781 12.167969 13.839844 12.070312 13.476562 C 11.96875 13.117188 11.941406 12.746094 11.980469 12.375 C 12.019531 12 12.125 11.644531 12.292969 11.3125 C 12.464844 10.976562 12.6875 10.683594 12.96875 10.429688 C 13.25 10.179688 13.5625 9.988281 13.914062 9.851562 C 14.265625 9.71875 14.628906 9.648438 15.007812 9.648438 C 15.382812 9.648438 15.746094 9.71875 16.097656 9.851562 C 16.449219 9.988281 16.765625 10.179688 17.046875 10.429688 C 17.324219 10.683594 17.550781 10.976562 17.722656 11.3125 C 17.890625 11.644531 17.996094 12 18.035156 12.375 C 18.074219 12.746094 18.042969 13.117188 17.945312 13.476562 C 17.847656 13.839844 17.6875 14.175781 17.464844 14.476562 L 15.007812 17.839844 Z M 15.007812 19.695312 C 12.058594 19.695312 10.179688 18.90625 10.179688 18.363281 C 10.179688 17.90625 11.515625 17.273438 13.691406 17.085938 L 14.757812 18.542969 C 14.820312 18.628906 14.902344 18.667969 15.007812 18.667969 C 15.113281 18.667969 15.195312 18.628906 15.257812 18.542969 L 16.320312 17.085938 C 18.5 17.273438 19.835938 17.90625 19.835938 18.363281 C 19.835938 18.90625 17.953125 19.695312 15.007812 19.695312 Z M 15.007812 19.695312 " fill-opacity="1" fill-rule="nonzero"/></g><path fill="#000000" d="M 16.804688 12.6875 C 16.804688 12.449219 16.757812 12.222656 16.667969 12 C 16.574219 11.78125 16.445312 11.589844 16.277344 11.421875 C 16.109375 11.253906 15.914062 11.121094 15.695312 11.03125 C 15.472656 10.941406 15.246094 10.894531 15.007812 10.894531 C 14.769531 10.894531 14.539062 10.941406 14.320312 11.03125 C 14.101562 11.121094 13.90625 11.25 13.738281 11.421875 C 13.570312 11.589844 13.4375 11.78125 13.347656 12 C 13.257812 12.222656 13.210938 12.449219 13.210938 12.6875 C 13.210938 12.925781 13.257812 13.152344 13.347656 13.371094 C 13.4375 13.59375 13.570312 13.785156 13.738281 13.953125 C 13.90625 14.121094 14.101562 14.253906 14.320312 14.34375 C 14.539062 14.433594 14.769531 14.480469 15.007812 14.480469 C 15.246094 14.480469 15.472656 14.433594 15.695312 14.34375 C 15.914062 14.25 16.109375 14.121094 16.277344 13.953125 C 16.445312 13.785156 16.574219 13.59375 16.664062 13.371094 C 16.757812 13.152344 16.804688 12.925781 16.804688 12.6875 Z M 13.828125 12.6875 C 13.828125 12.53125 13.859375 12.382812 13.917969 12.238281 C 13.976562 12.09375 14.0625 11.964844 14.171875 11.855469 C 14.285156 11.746094 14.410156 11.660156 14.554688 11.601562 C 14.699219 11.539062 14.851562 11.511719 15.007812 11.511719 C 15.164062 11.511719 15.3125 11.539062 15.457031 11.601562 C 15.601562 11.660156 15.730469 11.746094 15.839844 11.855469 C 15.953125 11.964844 16.039062 12.09375 16.097656 12.238281 C 16.15625 12.382812 16.1875 12.53125 16.1875 12.6875 C 16.1875 12.84375 16.15625 12.992188 16.097656 13.136719 C 16.039062 13.28125 15.953125 13.410156 15.839844 13.519531 C 15.730469 13.628906 15.601562 13.714844 15.457031 13.773438 C 15.3125 13.835938 15.164062 13.863281 15.007812 13.863281 C 14.851562 13.863281 14.699219 13.835938 14.554688 13.773438 C 14.410156 13.714844 14.285156 13.628906 14.171875 13.519531 C 14.0625 13.410156 13.976562 13.28125 13.917969 13.136719 C 13.859375 12.992188 13.828125 12.84375 13.828125 12.6875 Z M 13.828125 12.6875 " fill-opacity="1" fill-rule="nonzero"/></svg>