<svg xmlns="http://www.w3.org/2000/svg" xmlns:xlink="http://www.w3.org/1999/xlink" width="40" zoomAndPan="magnify" viewBox="0 0 30 30.000001" height="40" preserveAspectRatio="xMidYMid meet" version="1.0"><defs><clipPath id="b24d474243"><path d="M 9.195312 8.710938 L 20.804688 8.710938 L 20.804688 20.324219 L 9.195312 20.324219 Z M 9.195312 8.710938 " clip-rule="nonzero"/></clipPath></defs><g clip-path="url(#b24d474243)"><path fill="#000000" d="M 15 8.710938 C 11.792969 8.710938 9.195312 11.308594 9.195312 14.515625 C 9.195312 17.722656 11.792969 20.324219 15 20.324219 C 18.207031 20.324219 20.804688 17.722656 20.804688 14.515625 C 20.804688 11.308594 18.203125 8.710938 15 8.710938 Z M 15 19.636719 C 12.171875 19.636719 9.871094 17.34375 9.871094 14.511719 C 9.871094 11.679688 12.164062 9.382812 15 9.382812 C 17.835938 9.382812 20.128906 11.675781 20.128906 14.511719 C 20.121094 17.34375 17.828125 19.636719 15 19.636719 Z M 15 19.636719 " fill-opacity="1" fill-rule="nonzero"/></g><path fill="#000000" d="M 11.441406 12.273438 L 11.441406 16.980469 L 18.613281 16.980469 L 18.613281 12.273438 Z M 18.230469 16.597656 L 11.824219 16.597656 L 11.824219 12.65625 L 18.230469 12.65625 Z M 18.230469 16.597656 " fill-opacity="1" fill-rule="nonzero"/><path fill="#000000" d="M 11.589844 12.605469 L 15 15.332031 L 18.429688 12.621094 L 18.246094 12.4375 L 17.957031 12.4375 L 15.023438 14.769531 L 12.039062 12.402344 L 11.449219 12.261719 Z M 11.589844 12.605469 " fill-opacity="1" fill-rule="nonzero"/><path fill="#000000" d="M 11.578125 16.585938 L 14.300781 14.515625 L 14.59375 14.777344 L 11.941406 16.78125 Z M 11.578125 16.585938 " fill-opacity="1" fill-rule="nonzero"/><path fill="#000000" d="M 15.316406 14.777344 L 18.101562 16.78125 L 18.429688 16.585938 L 15.644531 14.515625 Z M 15.316406 14.777344 " fill-opacity="1" fill-rule="nonzero"/></svg>