<svg xmlns="http://www.w3.org/2000/svg" xmlns:xlink="http://www.w3.org/1999/xlink" width="40" zoomAndPan="magnify" viewBox="0 0 30 30.000001" height="40" preserveAspectRatio="xMidYMid meet" version="1.0"><defs><clipPath id="6bbe05f834"><path d="M 9.207031 8.710938 L 20.820312 8.710938 L 20.820312 20.324219 L 9.207031 20.324219 Z M 9.207031 8.710938 " clip-rule="nonzero"/></clipPath></defs><g clip-path="url(#6bbe05f834)"><path fill="#000000" d="M 17.25 16.894531 C 17.425781 17.109375 17.21875 17.347656 17.117188 17.441406 C 16.992188 17.5625 16.824219 17.660156 16.625 17.734375 C 16.523438 17.773438 16.441406 17.796875 16.363281 17.804688 L 16.316406 17.8125 C 16.121094 17.832031 15.898438 17.8125 15.636719 17.757812 C 15.117188 17.644531 14.640625 17.332031 14.167969 16.804688 C 14.09375 16.734375 13.558594 16.195312 13.210938 15.4375 C 12.867188 14.667969 12.824219 13.914062 12.820312 13.832031 C 12.734375 13.105469 12.820312 12.542969 13.078125 12.085938 C 13.21875 11.832031 13.367188 11.644531 13.523438 11.507812 C 13.582031 11.457031 13.652344 11.410156 13.753906 11.359375 C 13.9375 11.265625 14.117188 11.207031 14.285156 11.191406 C 14.390625 11.179688 14.75 11.171875 14.796875 11.453125 L 14.84375 11.933594 C 14.863281 12.148438 14.910156 12.691406 14.910156 12.691406 C 14.945312 13.035156 14.902344 13.214844 14.570312 13.261719 C 14.542969 13.265625 14.519531 13.261719 14.488281 13.261719 C 14.414062 13.253906 14.34375 13.25 14.285156 13.25 L 14.039062 13.25 L 14.046875 13.492188 C 14.050781 13.765625 14.148438 14.464844 14.355469 14.925781 C 14.546875 15.351562 14.992188 15.894531 15.226562 16.109375 L 15.40625 16.273438 L 15.566406 16.089844 C 15.605469 16.046875 15.644531 15.996094 15.667969 15.964844 C 15.710938 15.910156 15.730469 15.882812 15.746094 15.867188 C 15.832031 15.796875 15.910156 15.753906 15.988281 15.746094 C 16.144531 15.730469 16.261719 15.84375 16.394531 15.992188 Z M 20.820312 14.515625 C 20.820312 17.71875 18.222656 20.316406 15.015625 20.316406 C 11.808594 20.316406 9.207031 17.71875 9.207031 14.515625 C 9.207031 11.316406 11.808594 8.71875 15.015625 8.71875 C 18.222656 8.71875 20.820312 11.316406 20.820312 14.515625 Z M 19.9375 14.515625 C 19.9375 11.800781 17.734375 9.597656 15.015625 9.597656 C 12.296875 9.597656 10.089844 11.800781 10.089844 14.515625 C 10.089844 17.230469 12.296875 19.433594 15.015625 19.433594 C 17.734375 19.433594 19.9375 17.230469 19.9375 14.515625 Z M 19.9375 14.515625 " fill-opacity="1" fill-rule="nonzero"/></g></svg>